<svg xmlns="http://www.w3.org/2000/svg" viewBox="0 0 50 50">
  <path d="M8.6 1.52C11 1.05 14.3 6.83 15.71 8.51C21.03 7.84 26.45 7.8 31.77 8.51C32.78 7.27 33.61 5.86 34.65 4.65C38.29 0.4 39.08 -0.01 42.49 6.12C46.73 13.74 50.19 28.3 44.21 35.66C42.24 38.08 39.32 39.73 36.49 40.93L36.49 44.24C38.52 44.19 41.78 44.76 43.41 43.69C44.77 42.79 44.94 40.64 46.96 40.5C51.74 40.17 50.93 47.79 42.67 49.69C38.39 49.44 13.76 50.02 12.27 49.69C10.13 49.22 11.49 42.81 11.11 41.05C-1.14 36.5 -1.51 24.72 1.8 13.72C2.45 11.53 6.53 1.93 8.6 1.52Z"/>
</svg>
