<?xml version="1.0" encoding="UTF-8"?>
<svg id="Layer_1" xmlns="http://www.w3.org/2000/svg" viewBox="0 0 50 50"><metadata></metadata>
  <defs>
    <style>
      .cls-1 {
        fill: #e4d9dd;
      }

      .cls-2 {
        fill: #fff;
      }

      .cls-3 {
        fill: #040607;
      }
    </style>
  </defs>
  <path class="cls-3" d="M8.6,1.52c2.39-.47,5.7,5.31,7.11,6.99,5.32-.67,10.74-.71,16.06,0,1.01-1.24,1.84-2.65,2.88-3.86,3.64-4.25,4.43-4.66,7.84,1.47,4.24,7.62,7.7,22.18,1.72,29.54-1.97,2.42-4.89,4.07-7.72,5.27v3.31c2.03-.05,5.29.52,6.92-.55,1.36-.9,1.53-3.05,3.55-3.19,4.78-.33,3.97,7.29-4.29,9.19-4.28-.25-28.91.33-30.4,0-2.14-.47-.78-6.88-1.16-8.64C-1.14,36.5-1.51,24.72,1.8,13.72,2.45,11.53,6.53,1.93,8.6,1.52Z"/>
  <path class="cls-2" d="M13.13,41.6c6.89,2.08,14.4,1.83,21.33,0l.06,6.07-21.39.18v-6.25Z"/>
  <path class="cls-1" d="M43.59,32.9c-6.31,10.82-32.18,10.93-39.22.74-1.12-2.57.19.32,3.13,2.21,8.04,5.18,26.43,5.2,33.95-.98,1.32-1.09,2.36-2.88,2.14-1.96Z"/>
  <path class="cls-2" d="M47.08,42.46c2.41-.29-.4,4.89-5.39,5.39-.58.06-5.09.08-5.21-.18-.05-.11-.01-1.36.06-1.41.55-.39,5.5.9,8.21-1.1,1.27-.94,1.76-2.63,2.33-2.7Z"/>
  <g>
    <path class="cls-2" d="M43.59,32.9c.22-.92-.82.87-2.14,1.96-7.52,6.18-25.91,6.16-33.95.98-2.93-1.89-4.25-4.78-3.13-2.21C-.81,26.13,3.6,10.4,9.09,3.6c2.29,1.98,3.9,4.55,5.64,6.99,6-.84,12.01-.89,18.02,0,1.83-2.4,3.36-5.08,5.76-6.99,5.25,6.8,9.56,21.61,5.09,29.29Z"/>
    <path class="cls-1" d="M38.13,6.55c.76-.06,4.44,8.94,4.41,10.3-2.47-1.97-5.05-3.81-8.03-4.96-.21-.42,2.97-4.84,3.62-5.33Z"/>
    <path class="cls-1" d="M9.33,6.42c1.45,1.63,2.68,3.43,3.74,5.33-2.85,1.32-5.54,2.89-7.91,4.96-.61-.49,3.17-9.36,4.17-10.3Z"/>
    <path class="cls-3" d="M22.32,28.73c6.09-.24,1.86,1.72,1.78,2.02-.04.13.24,1.85,1.04,2.39,1.83,1.22,4.03-1.04,3.62.43-.17.62-3.04,1.88-5.09-.67-1.73,2.56-4.81,1.32-4.96.67-.38-1.59,2.69,1.46,4.17-1.1,1.46-2.53-2.2-2.57-.55-3.74Z"/>
    <g>
      <path class="cls-3" d="M13.62,22.48c4.53-.76,5.05,5.25,1.59,5.88-4.65.85-5.2-5.28-1.59-5.88Z"/>
      <path class="cls-2" d="M15.58,23.83c1.07-.18,1.21,1.41.37,1.59-1.26.27-1.29-1.44-.37-1.59Z"/>
      <path class="cls-2" d="M13.74,24.93c.73-.17,1.03.89.49,1.1-.93.37-1.18-.95-.49-1.1Z"/>
    </g>
    <g>
      <path class="cls-3" d="M32.37,22.48c4.44-.74,5.15,5.24,1.59,5.88-4.67.85-5.17-5.29-1.59-5.88Z"/>
      <path class="cls-2" d="M34.34,23.83c1.05-.17,1.26,1.43.37,1.59-1.14.21-1.33-1.44-.37-1.59Z"/>
      <path class="cls-2" d="M32.5,24.93c.95-.28,1.05,1.17.25,1.23-.7.05-.82-1.06-.25-1.23Z"/>
    </g>
  </g>
</svg>